<svg width="46" height="46" viewBox="0 0 46 46" fill="none" xmlns="http://www.w3.org/2000/svg">
<mask id="mask0_17_3033" style="mask-type:alpha" maskUnits="userSpaceOnUse" x="0" y="0" width="46" height="46">
<rect x="0.374146" y="0.0424805" width="45" height="45" fill="#E04F35"/>
</mask>
<g mask="url(#mask0_17_3033)">
<mask id="mask1_17_3033" style="mask-type:alpha" maskUnits="userSpaceOnUse" x="-1" y="0" width="46" height="46">
<rect x="-0.0524902" y="0.419189" width="45" height="45" fill="#E04F35"/>
</mask>
<g mask="url(#mask1_17_3033)">
<path d="M20.76 36.0442H24.0413V33.7004C25.6038 33.4192 26.9475 32.8098 28.0725 31.8723C29.1975 30.9348 29.76 29.5442 29.76 27.7004C29.76 26.3879 29.385 25.1848 28.635 24.0911C27.885 22.9973 26.385 22.0442 24.135 21.2317C22.26 20.6067 20.9631 20.0598 20.2444 19.5911C19.5256 19.1223 19.1663 18.4817 19.1663 17.6692C19.1663 16.8567 19.4553 16.2161 20.0334 15.7473C20.6116 15.2786 21.4475 15.0442 22.5413 15.0442C23.5413 15.0442 24.3225 15.2864 24.885 15.7708C25.4475 16.2551 25.8538 16.8567 26.1038 17.5754L29.1038 16.3567C28.76 15.2629 28.1272 14.3098 27.2053 13.4973C26.2834 12.6848 25.26 12.2317 24.135 12.1379V9.79419H20.8538V12.1379C19.2913 12.4817 18.0725 13.1692 17.1975 14.2004C16.3225 15.2317 15.885 16.3879 15.885 17.6692C15.885 19.1379 16.3147 20.3254 17.1741 21.2317C18.0334 22.1379 19.385 22.9192 21.2288 23.5754C23.1975 24.2942 24.5647 24.9348 25.3303 25.4973C26.0959 26.0598 26.4788 26.7942 26.4788 27.7004C26.4788 28.7317 26.1116 29.4895 25.3772 29.9739C24.6428 30.4583 23.76 30.7004 22.7288 30.7004C21.6975 30.7004 20.7834 30.3801 19.9866 29.7395C19.1897 29.0989 18.6038 28.1379 18.2288 26.8567L15.135 28.0754C15.5725 29.5754 16.2522 30.7864 17.1741 31.7083C18.0959 32.6301 19.2913 33.2629 20.76 33.6067V36.0442ZM22.4475 41.6692C19.8538 41.6692 17.4163 41.177 15.135 40.1926C12.8538 39.2083 10.8694 37.8723 9.18188 36.1848C7.49438 34.4973 6.15845 32.5129 5.17407 30.2317C4.1897 27.9504 3.69751 25.5129 3.69751 22.9192C3.69751 20.3254 4.1897 17.8879 5.17407 15.6067C6.15845 13.3254 7.49438 11.3411 9.18188 9.65356C10.8694 7.96606 12.8538 6.63013 15.135 5.64575C17.4163 4.66138 19.8538 4.16919 22.4475 4.16919C25.0413 4.16919 27.4788 4.66138 29.76 5.64575C32.0413 6.63013 34.0256 7.96606 35.7131 9.65356C37.4006 11.3411 38.7366 13.3254 39.7209 15.6067C40.7053 17.8879 41.1975 20.3254 41.1975 22.9192C41.1975 25.5129 40.7053 27.9504 39.7209 30.2317C38.7366 32.5129 37.4006 34.4973 35.7131 36.1848C34.0256 37.8723 32.0413 39.2083 29.76 40.1926C27.4788 41.177 25.0413 41.6692 22.4475 41.6692ZM22.4475 37.9192C26.635 37.9192 30.1819 36.4661 33.0881 33.5598C35.9944 30.6536 37.4475 27.1067 37.4475 22.9192C37.4475 18.7317 35.9944 15.1848 33.0881 12.2786C30.1819 9.37231 26.635 7.91919 22.4475 7.91919C18.26 7.91919 14.7131 9.37231 11.8069 12.2786C8.90064 15.1848 7.44751 18.7317 7.44751 22.9192C7.44751 27.1067 8.90064 30.6536 11.8069 33.5598C14.7131 36.4661 18.26 37.9192 22.4475 37.9192Z" fill="#E04F35"/>
</g>
</g>
</svg>
