<svg width="46" height="45" viewBox="0 0 46 45" fill="none" xmlns="http://www.w3.org/2000/svg">
<mask id="mask0_17_2997" style="mask-type:alpha" maskUnits="userSpaceOnUse" x="0" y="0" width="46" height="45">
<rect x="0.51355" width="45" height="45" fill="#E04F35"/>
</mask>
<g mask="url(#mask0_17_2997)">
<path d="M11.7635 37.5C10.7323 37.5 9.84949 37.1328 9.11511 36.3984C8.38074 35.6641 8.01355 34.7812 8.01355 33.75C8.01355 32.7188 8.38074 31.8359 9.11511 31.1016C9.84949 30.3672 10.7323 30 11.7635 30C12.7948 30 13.6776 30.3672 14.412 31.1016C15.1464 31.8359 15.5135 32.7188 15.5135 33.75C15.5135 34.7812 15.1464 35.6641 14.412 36.3984C13.6776 37.1328 12.7948 37.5 11.7635 37.5ZM23.0135 37.5C21.9823 37.5 21.0995 37.1328 20.3651 36.3984C19.6307 35.6641 19.2635 34.7812 19.2635 33.75C19.2635 32.7188 19.6307 31.8359 20.3651 31.1016C21.0995 30.3672 21.9823 30 23.0135 30C24.0448 30 24.9276 30.3672 25.662 31.1016C26.3964 31.8359 26.7635 32.7188 26.7635 33.75C26.7635 34.7812 26.3964 35.6641 25.662 36.3984C24.9276 37.1328 24.0448 37.5 23.0135 37.5ZM34.2635 37.5C33.2323 37.5 32.3495 37.1328 31.6151 36.3984C30.8807 35.6641 30.5135 34.7812 30.5135 33.75C30.5135 32.7188 30.8807 31.8359 31.6151 31.1016C32.3495 30.3672 33.2323 30 34.2635 30C35.2948 30 36.1776 30.3672 36.912 31.1016C37.6464 31.8359 38.0135 32.7188 38.0135 33.75C38.0135 34.7812 37.6464 35.6641 36.912 36.3984C36.1776 37.1328 35.2948 37.5 34.2635 37.5ZM11.7635 26.25C10.7323 26.25 9.84949 25.8828 9.11511 25.1484C8.38074 24.4141 8.01355 23.5312 8.01355 22.5C8.01355 21.4688 8.38074 20.5859 9.11511 19.8516C9.84949 19.1172 10.7323 18.75 11.7635 18.75C12.7948 18.75 13.6776 19.1172 14.412 19.8516C15.1464 20.5859 15.5135 21.4688 15.5135 22.5C15.5135 23.5312 15.1464 24.4141 14.412 25.1484C13.6776 25.8828 12.7948 26.25 11.7635 26.25ZM23.0135 26.25C21.9823 26.25 21.0995 25.8828 20.3651 25.1484C19.6307 24.4141 19.2635 23.5312 19.2635 22.5C19.2635 21.4688 19.6307 20.5859 20.3651 19.8516C21.0995 19.1172 21.9823 18.75 23.0135 18.75C24.0448 18.75 24.9276 19.1172 25.662 19.8516C26.3964 20.5859 26.7635 21.4688 26.7635 22.5C26.7635 23.5312 26.3964 24.4141 25.662 25.1484C24.9276 25.8828 24.0448 26.25 23.0135 26.25ZM34.2635 26.25C33.2323 26.25 32.3495 25.8828 31.6151 25.1484C30.8807 24.4141 30.5135 23.5312 30.5135 22.5C30.5135 21.4688 30.8807 20.5859 31.6151 19.8516C32.3495 19.1172 33.2323 18.75 34.2635 18.75C35.2948 18.75 36.1776 19.1172 36.912 19.8516C37.6464 20.5859 38.0135 21.4688 38.0135 22.5C38.0135 23.5312 37.6464 24.4141 36.912 25.1484C36.1776 25.8828 35.2948 26.25 34.2635 26.25ZM11.7635 15C10.7323 15 9.84949 14.6328 9.11511 13.8984C8.38074 13.1641 8.01355 12.2812 8.01355 11.25C8.01355 10.2188 8.38074 9.33594 9.11511 8.60156C9.84949 7.86719 10.7323 7.5 11.7635 7.5C12.7948 7.5 13.6776 7.86719 14.412 8.60156C15.1464 9.33594 15.5135 10.2188 15.5135 11.25C15.5135 12.2812 15.1464 13.1641 14.412 13.8984C13.6776 14.6328 12.7948 15 11.7635 15ZM23.0135 15C21.9823 15 21.0995 14.6328 20.3651 13.8984C19.6307 13.1641 19.2635 12.2812 19.2635 11.25C19.2635 10.2188 19.6307 9.33594 20.3651 8.60156C21.0995 7.86719 21.9823 7.5 23.0135 7.5C24.0448 7.5 24.9276 7.86719 25.662 8.60156C26.3964 9.33594 26.7635 10.2188 26.7635 11.25C26.7635 12.2812 26.3964 13.1641 25.662 13.8984C24.9276 14.6328 24.0448 15 23.0135 15ZM34.2635 15C33.2323 15 32.3495 14.6328 31.6151 13.8984C30.8807 13.1641 30.5135 12.2812 30.5135 11.25C30.5135 10.2188 30.8807 9.33594 31.6151 8.60156C32.3495 7.86719 33.2323 7.5 34.2635 7.5C35.2948 7.5 36.1776 7.86719 36.912 8.60156C37.6464 9.33594 38.0135 10.2188 38.0135 11.25C38.0135 12.2812 37.6464 13.1641 36.912 13.8984C36.1776 14.6328 35.2948 15 34.2635 15Z" fill="#E04F35"/>
</g>
</svg>
