<svg width="46" height="46" viewBox="0 0 46 46" fill="none" xmlns="http://www.w3.org/2000/svg">
<mask id="mask0_17_3014" style="mask-type:alpha" maskUnits="userSpaceOnUse" x="0" y="0" width="46" height="46">
<rect x="0.874146" y="0.52124" width="45" height="45" fill="#E04F35"/>
</mask>
<g mask="url(#mask0_17_3014)">
<path d="M13.9991 41.7712V34.2712H0.874146L8.0929 23.0212H4.62415L17.7491 4.27124L23.3741 12.3337L28.9991 4.27124L42.1241 23.0212H38.6554L45.8741 34.2712H32.7491V41.7712H25.2491V34.2712H21.4991V41.7712H13.9991ZM32.2335 30.5212H39.0304L31.7648 19.2712H34.9054L28.9991 10.8337L25.671 15.5681L30.8741 23.0212H27.4054L32.2335 30.5212ZM7.7179 30.5212H27.7804L20.5148 19.2712H23.6554L17.7491 10.8337L11.8429 19.2712H14.9835L7.7179 30.5212ZM7.7179 30.5212H14.9835H11.8429H23.6554H20.5148H27.7804H7.7179ZM32.2335 30.5212H27.4054H30.8741H25.671H34.9054H31.7648H39.0304H32.2335Z" fill="#E04F35"/>
</g>
</svg>
