<svg width="46" height="46" viewBox="0 0 46 46" fill="none" xmlns="http://www.w3.org/2000/svg">
<mask id="mask0_17_3058" style="mask-type:alpha" maskUnits="userSpaceOnUse" x="0" y="0" width="46" height="46">
<rect x="0.374146" y="0.52124" width="45" height="45" fill="#E04F35"/>
</mask>
<g mask="url(#mask0_17_3058)">
<mask id="mask1_17_3058" style="mask-type:alpha" maskUnits="userSpaceOnUse" x="-1" y="0" width="46" height="46">
<rect x="-0.385742" y="0.899963" width="45" height="45" fill="#E04F35"/>
</mask>
<g mask="url(#mask1_17_3058)">
<path d="M7.11426 40.275C6.58301 40.275 6.1377 40.0953 5.77832 39.7359C5.41895 39.3765 5.23926 38.9312 5.23926 38.4C5.23926 37.8687 5.41895 37.4234 5.77832 37.064C6.1377 36.7047 6.58301 36.525 7.11426 36.525H8.98926V25.275H7.11426C6.58301 25.275 6.1377 25.0953 5.77832 24.7359C5.41895 24.3765 5.23926 23.9312 5.23926 23.4C5.23926 22.8687 5.41895 22.4234 5.77832 22.064C6.1377 21.7047 6.58301 21.525 7.11426 21.525H8.98926V10.275H7.11426C6.58301 10.275 6.1377 10.0953 5.77832 9.7359C5.41895 9.37653 5.23926 8.93121 5.23926 8.39996C5.23926 7.86871 5.41895 7.4234 5.77832 7.06403C6.1377 6.70465 6.58301 6.52496 7.11426 6.52496H37.1143C37.6455 6.52496 38.0908 6.70465 38.4502 7.06403C38.8096 7.4234 38.9893 7.86871 38.9893 8.39996C38.9893 8.93121 38.8096 9.37653 38.4502 9.7359C38.0908 10.0953 37.6455 10.275 37.1143 10.275H35.2393V21.525H37.1143C37.6455 21.525 38.0908 21.7047 38.4502 22.064C38.8096 22.4234 38.9893 22.8687 38.9893 23.4C38.9893 23.9312 38.8096 24.3765 38.4502 24.7359C38.0908 25.0953 37.6455 25.275 37.1143 25.275H35.2393V36.525H37.1143C37.6455 36.525 38.0908 36.7047 38.4502 37.064C38.8096 37.4234 38.9893 37.8687 38.9893 38.4C38.9893 38.9312 38.8096 39.3765 38.4502 39.7359C38.0908 40.0953 37.6455 40.275 37.1143 40.275H7.11426ZM12.7393 36.525H31.4893V25.275C30.958 25.275 30.5127 25.0953 30.1533 24.7359C29.7939 24.3765 29.6143 23.9312 29.6143 23.4C29.6143 22.8687 29.7939 22.4234 30.1533 22.064C30.5127 21.7047 30.958 21.525 31.4893 21.525V10.275H12.7393V21.525C13.2705 21.525 13.7158 21.7047 14.0752 22.064C14.4346 22.4234 14.6143 22.8687 14.6143 23.4C14.6143 23.9312 14.4346 24.3765 14.0752 24.7359C13.7158 25.0953 13.2705 25.275 12.7393 25.275V36.525ZM22.1143 30.9C23.6768 30.9 25.0049 30.3609 26.0986 29.2828C27.1924 28.2047 27.7393 26.9 27.7393 25.3687C27.7393 24.15 27.3877 23.1031 26.6846 22.2281C25.9814 21.3531 24.458 19.5562 22.1143 16.8375C19.7705 19.525 18.2471 21.314 17.5439 22.2047C16.8408 23.0953 16.4893 24.15 16.4893 25.3687C16.4893 26.9 17.0361 28.2047 18.1299 29.2828C19.2236 30.3609 20.5518 30.9 22.1143 30.9Z" fill="#E04F35"/>
</g>
</g>
</svg>
