<svg width="46" height="46" viewBox="0 0 46 46" fill="none" xmlns="http://www.w3.org/2000/svg">
<mask id="mask0_17_3018" style="mask-type:alpha" maskUnits="userSpaceOnUse" x="0" y="0" width="46" height="46">
<rect x="0.874146" y="0.0424805" width="45" height="45" fill="#E04F35"/>
</mask>
<g mask="url(#mask0_17_3018)">
<mask id="mask1_17_3018" style="mask-type:alpha" maskUnits="userSpaceOnUse" x="0" y="0" width="46" height="46">
<rect x="0.44751" y="0.281067" width="45" height="45" fill="#E04F35"/>
</mask>
<g mask="url(#mask1_17_3018)">
<path d="M7.94751 37.7811V32.5311C7.94751 31.4686 8.22095 30.492 8.76782 29.6014C9.3147 28.7108 10.0413 28.0311 10.9475 27.5623C12.885 26.5936 14.8538 25.867 16.8538 25.3826C18.8538 24.8983 20.885 24.6561 22.9475 24.6561C23.5725 24.6561 24.1975 24.6795 24.8225 24.7264C25.4475 24.7733 26.0725 24.8436 26.6975 24.9373V28.7342C26.0725 28.6092 25.4475 28.5233 24.8225 28.4764C24.1975 28.4295 23.5725 28.4061 22.9475 28.4061C21.1975 28.4061 19.4631 28.617 17.7444 29.0389C16.0256 29.4608 14.3225 30.0936 12.635 30.9373C12.3538 31.0936 12.1272 31.3123 11.9553 31.5936C11.7834 31.8748 11.6975 32.1873 11.6975 32.5311V34.0311H26.6975V37.7811H7.94751ZM22.9475 22.7811C20.885 22.7811 19.1194 22.0467 17.6506 20.5779C16.1819 19.1092 15.4475 17.3436 15.4475 15.2811C15.4475 13.2186 16.1819 11.4529 17.6506 9.98419C19.1194 8.51544 20.885 7.78107 22.9475 7.78107C25.01 7.78107 26.7756 8.51544 28.2444 9.98419C29.7131 11.4529 30.4475 13.2186 30.4475 15.2811C30.4475 17.3436 29.7131 19.1092 28.2444 20.5779C26.7756 22.0467 25.01 22.7811 22.9475 22.7811ZM22.9475 19.0311C23.9788 19.0311 24.8616 18.6639 25.5959 17.9295C26.3303 17.1951 26.6975 16.3123 26.6975 15.2811C26.6975 14.2498 26.3303 13.367 25.5959 12.6326C24.8616 11.8983 23.9788 11.5311 22.9475 11.5311C21.9163 11.5311 21.0334 11.8983 20.2991 12.6326C19.5647 13.367 19.1975 14.2498 19.1975 15.2811C19.1975 16.3123 19.5647 17.1951 20.2991 17.9295C21.0334 18.6639 21.9163 19.0311 22.9475 19.0311ZM34.1975 45.2811V35.9061H30.4475V24.6561H41.6975L37.9475 32.1561H41.6975L34.1975 45.2811Z" fill="#E04F35"/>
</g>
</g>
</svg>
