<svg width="46" height="45" viewBox="0 0 46 45" fill="none" xmlns="http://www.w3.org/2000/svg">
<mask id="mask0_17_2601" style="mask-type:alpha" maskUnits="userSpaceOnUse" x="0" y="0" width="46" height="45">
<rect x="0.5" width="45" height="45" fill="#E04F35"/>
</mask>
<g mask="url(#mask0_17_2601)">
<path d="M23 31.875C23.5312 31.875 23.9766 31.6953 24.3359 31.3359C24.6953 30.9766 24.875 30.5312 24.875 30C24.875 29.4688 24.6953 29.0234 24.3359 28.6641C23.9766 28.3047 23.5312 28.125 23 28.125C22.4688 28.125 22.0234 28.3047 21.6641 28.6641C21.3047 29.0234 21.125 29.4688 21.125 30C21.125 30.5312 21.3047 30.9766 21.6641 31.3359C22.0234 31.6953 22.4688 31.875 23 31.875ZM21.125 24.375H24.875V13.125H21.125V24.375ZM23 41.25C20.4062 41.25 17.9688 40.7578 15.6875 39.7734C13.4062 38.7891 11.4219 37.4531 9.73438 35.7656C8.04687 34.0781 6.71094 32.0938 5.72656 29.8125C4.74219 27.5313 4.25 25.0938 4.25 22.5C4.25 19.9062 4.74219 17.4688 5.72656 15.1875C6.71094 12.9062 8.04687 10.9219 9.73438 9.23438C11.4219 7.54687 13.4062 6.21094 15.6875 5.22656C17.9688 4.24219 20.4062 3.75 23 3.75C25.5938 3.75 28.0313 4.24219 30.3125 5.22656C32.5938 6.21094 34.5781 7.54687 36.2656 9.23438C37.9531 10.9219 39.2891 12.9062 40.2734 15.1875C41.2578 17.4688 41.75 19.9062 41.75 22.5C41.75 25.0938 41.2578 27.5313 40.2734 29.8125C39.2891 32.0938 37.9531 34.0781 36.2656 35.7656C34.5781 37.4531 32.5938 38.7891 30.3125 39.7734C28.0313 40.7578 25.5938 41.25 23 41.25ZM23 37.5C27.1875 37.5 30.7344 36.0469 33.6406 33.1406C36.5469 30.2344 38 26.6875 38 22.5C38 18.3125 36.5469 14.7656 33.6406 11.8594C30.7344 8.95313 27.1875 7.5 23 7.5C18.8125 7.5 15.2656 8.95313 12.3594 11.8594C9.45313 14.7656 8 18.3125 8 22.5C8 26.6875 9.45313 30.2344 12.3594 33.1406C15.2656 36.0469 18.8125 37.5 23 37.5Z" fill="#E04F35"/>
</g>
</svg>
